<mxfile host="app.diagrams.net" agent="Mozilla/5.0 (Macintosh; Intel Mac OS X 10_15_7) AppleWebKit/537.36 (KHTML, like Gecko) Chrome/135.0.0.0 Safari/537.36" version="26.2.12">
  <diagram name="Page-1" id="CJ1grwiRKDDhybf41n5O">
    <mxGraphModel dx="2043" dy="1348" grid="1" gridSize="10" guides="1" tooltips="1" connect="1" arrows="1" fold="1" page="1" pageScale="1" pageWidth="2339" pageHeight="3300" math="0" shadow="0">
      <root>
        <mxCell id="0" />
        <mxCell id="1" parent="0" />
        <mxCell id="ceODfWnPgdktClt1tQam-1" value="Expert" style="shape=umlActor;verticalLabelPosition=bottom;verticalAlign=top;html=1;" vertex="1" parent="1">
          <mxGeometry x="310" y="140" width="30" height="60" as="geometry" />
        </mxCell>
        <mxCell id="ceODfWnPgdktClt1tQam-8" value="Clerk" style="shape=umlActor;verticalLabelPosition=bottom;verticalAlign=top;html=1;" vertex="1" parent="1">
          <mxGeometry x="490" y="140" width="30" height="60" as="geometry" />
        </mxCell>
        <mxCell id="ceODfWnPgdktClt1tQam-9" value=":System" style="html=1;whiteSpace=wrap;" vertex="1" parent="1">
          <mxGeometry x="630" y="151" width="110" height="50" as="geometry" />
        </mxCell>
        <mxCell id="ceODfWnPgdktClt1tQam-10" value="c:createAccount" style="html=1;whiteSpace=wrap;" vertex="1" parent="1">
          <mxGeometry x="840" y="150" width="110" height="50" as="geometry" />
        </mxCell>
        <mxCell id="ceODfWnPgdktClt1tQam-11" value="Database" style="html=1;whiteSpace=wrap;" vertex="1" parent="1">
          <mxGeometry x="1040" y="150" width="110" height="50" as="geometry" />
        </mxCell>
        <mxCell id="ceODfWnPgdktClt1tQam-13" value="" style="endArrow=none;dashed=1;html=1;dashPattern=1 3;strokeWidth=2;rounded=0;" edge="1" parent="1">
          <mxGeometry width="50" height="50" relative="1" as="geometry">
            <mxPoint x="320" y="1880" as="sourcePoint" />
            <mxPoint x="324.47" y="230" as="targetPoint" />
          </mxGeometry>
        </mxCell>
        <mxCell id="ceODfWnPgdktClt1tQam-14" value="" style="endArrow=none;dashed=1;html=1;dashPattern=1 3;strokeWidth=2;rounded=0;" edge="1" parent="1">
          <mxGeometry width="50" height="50" relative="1" as="geometry">
            <mxPoint x="890" y="1880" as="sourcePoint" />
            <mxPoint x="900" y="200" as="targetPoint" />
          </mxGeometry>
        </mxCell>
        <mxCell id="ceODfWnPgdktClt1tQam-15" value="" style="endArrow=none;dashed=1;html=1;dashPattern=1 3;strokeWidth=2;rounded=0;" edge="1" parent="1">
          <mxGeometry width="50" height="50" relative="1" as="geometry">
            <mxPoint x="1100" y="1880" as="sourcePoint" />
            <mxPoint x="1100" y="200" as="targetPoint" />
          </mxGeometry>
        </mxCell>
        <mxCell id="ceODfWnPgdktClt1tQam-16" value="" style="endArrow=none;dashed=1;html=1;dashPattern=1 3;strokeWidth=2;rounded=0;" edge="1" parent="1">
          <mxGeometry width="50" height="50" relative="1" as="geometry">
            <mxPoint x="680" y="1870" as="sourcePoint" />
            <mxPoint x="684.47" y="201" as="targetPoint" />
          </mxGeometry>
        </mxCell>
        <mxCell id="ceODfWnPgdktClt1tQam-17" value="" style="endArrow=none;dashed=1;html=1;dashPattern=1 3;strokeWidth=2;rounded=0;" edge="1" parent="1">
          <mxGeometry width="50" height="50" relative="1" as="geometry">
            <mxPoint x="500" y="1889.7902268629807" as="sourcePoint" />
            <mxPoint x="504.47" y="230" as="targetPoint" />
          </mxGeometry>
        </mxCell>
        <mxCell id="ceODfWnPgdktClt1tQam-18" value="" style="endArrow=classic;html=1;rounded=0;" edge="1" parent="1">
          <mxGeometry width="50" height="50" relative="1" as="geometry">
            <mxPoint x="503" y="290" as="sourcePoint" />
            <mxPoint x="683" y="290" as="targetPoint" />
          </mxGeometry>
        </mxCell>
        <mxCell id="ceODfWnPgdktClt1tQam-19" value="make_expert_account()" style="text;html=1;align=center;verticalAlign=middle;whiteSpace=wrap;rounded=0;" vertex="1" parent="1">
          <mxGeometry x="530" y="260" width="130" height="30" as="geometry" />
        </mxCell>
        <mxCell id="ceODfWnPgdktClt1tQam-23" value="" style="endArrow=classic;html=1;rounded=0;" edge="1" parent="1">
          <mxGeometry width="50" height="50" relative="1" as="geometry">
            <mxPoint x="686" y="327" as="sourcePoint" />
            <mxPoint x="900" y="327" as="targetPoint" />
          </mxGeometry>
        </mxCell>
        <mxCell id="ceODfWnPgdktClt1tQam-24" value="details(name,expertise,&lt;div&gt;email,available_schedule)&lt;/div&gt;" style="text;html=1;align=center;verticalAlign=middle;whiteSpace=wrap;rounded=0;" vertex="1" parent="1">
          <mxGeometry x="710" y="290" width="159" height="30" as="geometry" />
        </mxCell>
        <mxCell id="ceODfWnPgdktClt1tQam-25" value="" style="endArrow=classic;html=1;rounded=0;" edge="1" parent="1">
          <mxGeometry width="50" height="50" relative="1" as="geometry">
            <mxPoint x="900" y="378" as="sourcePoint" />
            <mxPoint x="1100" y="378" as="targetPoint" />
          </mxGeometry>
        </mxCell>
        <mxCell id="ceODfWnPgdktClt1tQam-26" value="info_stored" style="text;html=1;align=center;verticalAlign=middle;whiteSpace=wrap;rounded=0;" vertex="1" parent="1">
          <mxGeometry x="970" y="350" width="60" height="30" as="geometry" />
        </mxCell>
        <mxCell id="ceODfWnPgdktClt1tQam-28" value="" style="html=1;verticalAlign=bottom;labelBackgroundColor=none;endArrow=block;endFill=1;dashed=1;rounded=0;" edge="1" parent="1">
          <mxGeometry width="160" relative="1" as="geometry">
            <mxPoint x="1100" y="440" as="sourcePoint" />
            <mxPoint x="680" y="440" as="targetPoint" />
          </mxGeometry>
        </mxCell>
        <mxCell id="ceODfWnPgdktClt1tQam-29" value="confirmation from database" style="text;html=1;align=center;verticalAlign=middle;whiteSpace=wrap;rounded=0;" vertex="1" parent="1">
          <mxGeometry x="720" y="410" width="130" height="30" as="geometry" />
        </mxCell>
        <mxCell id="ceODfWnPgdktClt1tQam-30" value="" style="html=1;verticalAlign=bottom;labelBackgroundColor=none;endArrow=block;endFill=1;dashed=1;rounded=0;" edge="1" parent="1">
          <mxGeometry width="160" relative="1" as="geometry">
            <mxPoint x="680" y="480" as="sourcePoint" />
            <mxPoint x="510" y="480" as="targetPoint" />
          </mxGeometry>
        </mxCell>
        <mxCell id="ceODfWnPgdktClt1tQam-31" value="display (&quot;Account is created&quot;)" style="text;html=1;align=center;verticalAlign=middle;whiteSpace=wrap;rounded=0;" vertex="1" parent="1">
          <mxGeometry x="520" y="450" width="130" height="30" as="geometry" />
        </mxCell>
        <mxCell id="ceODfWnPgdktClt1tQam-33" value="" style="endArrow=classic;html=1;rounded=0;" edge="1" parent="1">
          <mxGeometry width="50" height="50" relative="1" as="geometry">
            <mxPoint x="320" y="540" as="sourcePoint" />
            <mxPoint x="690" y="540" as="targetPoint" />
          </mxGeometry>
        </mxCell>
        <mxCell id="ceODfWnPgdktClt1tQam-34" value="Login(email,password)" style="text;html=1;align=center;verticalAlign=middle;whiteSpace=wrap;rounded=0;" vertex="1" parent="1">
          <mxGeometry x="360" y="510" width="130" height="30" as="geometry" />
        </mxCell>
        <mxCell id="ceODfWnPgdktClt1tQam-36" value="ALT" style="shape=umlFrame;whiteSpace=wrap;html=1;pointerEvents=0;" vertex="1" parent="1">
          <mxGeometry x="280" y="560" width="500" height="240" as="geometry" />
        </mxCell>
        <mxCell id="ceODfWnPgdktClt1tQam-38" value="" style="endArrow=none;html=1;rounded=0;entryX=0.996;entryY=0.487;entryDx=0;entryDy=0;entryPerimeter=0;exitX=0.001;exitY=0.487;exitDx=0;exitDy=0;exitPerimeter=0;" edge="1" parent="1">
          <mxGeometry width="50" height="50" relative="1" as="geometry">
            <mxPoint x="280.5" y="670.8800000000001" as="sourcePoint" />
            <mxPoint x="778" y="670.8800000000001" as="targetPoint" />
          </mxGeometry>
        </mxCell>
        <mxCell id="ceODfWnPgdktClt1tQam-39" value="" style="html=1;verticalAlign=bottom;labelBackgroundColor=none;endArrow=block;endFill=1;dashed=1;rounded=0;" edge="1" parent="1">
          <mxGeometry width="160" relative="1" as="geometry">
            <mxPoint x="682" y="638" as="sourcePoint" />
            <mxPoint x="322" y="638" as="targetPoint" />
          </mxGeometry>
        </mxCell>
        <mxCell id="ceODfWnPgdktClt1tQam-41" value="" style="html=1;verticalAlign=bottom;labelBackgroundColor=none;endArrow=block;endFill=1;dashed=1;rounded=0;" edge="1" parent="1">
          <mxGeometry width="160" relative="1" as="geometry">
            <mxPoint x="680" y="727" as="sourcePoint" />
            <mxPoint x="320" y="727" as="targetPoint" />
          </mxGeometry>
        </mxCell>
        <mxCell id="ceODfWnPgdktClt1tQam-42" value="LoggedIn(&quot;Successfull&quot;)" style="text;html=1;align=center;verticalAlign=middle;whiteSpace=wrap;rounded=0;" vertex="1" parent="1">
          <mxGeometry x="520" y="612" width="150" height="30" as="geometry" />
        </mxCell>
        <mxCell id="ceODfWnPgdktClt1tQam-44" value="Invalid(&quot;wrong credentials&quot;)" style="text;html=1;align=center;verticalAlign=middle;whiteSpace=wrap;rounded=0;" vertex="1" parent="1">
          <mxGeometry x="510" y="708" width="170" height="20" as="geometry" />
        </mxCell>
        <mxCell id="ceODfWnPgdktClt1tQam-45" value="" style="endArrow=classic;html=1;rounded=0;" edge="1" parent="1">
          <mxGeometry width="50" height="50" relative="1" as="geometry">
            <mxPoint x="330" y="767" as="sourcePoint" />
            <mxPoint x="680" y="767" as="targetPoint" />
          </mxGeometry>
        </mxCell>
        <mxCell id="ceODfWnPgdktClt1tQam-47" value="&lt;span style=&quot;color: rgb(0, 0, 0); font-family: Helvetica; font-size: 12px; font-style: normal; font-variant-ligatures: normal; font-variant-caps: normal; font-weight: 400; letter-spacing: normal; orphans: 2; text-align: center; text-indent: 0px; text-transform: none; widows: 2; word-spacing: 0px; -webkit-text-stroke-width: 0px; white-space: normal; background-color: rgb(236, 236, 236); text-decoration-thickness: initial; text-decoration-style: initial; text-decoration-color: initial; float: none; display: inline !important;&quot;&gt;Enter(email,password)&lt;/span&gt;" style="text;whiteSpace=wrap;html=1;" vertex="1" parent="1">
          <mxGeometry x="360" y="740" width="150" height="40" as="geometry" />
        </mxCell>
        <mxCell id="ceODfWnPgdktClt1tQam-48" value="Approved" style="text;html=1;align=center;verticalAlign=middle;whiteSpace=wrap;rounded=0;" vertex="1" parent="1">
          <mxGeometry x="340" y="560" width="60" height="30" as="geometry" />
        </mxCell>
        <mxCell id="ceODfWnPgdktClt1tQam-49" value="&lt;div style=&quot;text-align: center;&quot;&gt;&lt;span style=&quot;background-color: transparent; color: light-dark(rgb(0, 0, 0), rgb(255, 255, 255));&quot;&gt;Rejection&lt;/span&gt;&lt;/div&gt;" style="text;whiteSpace=wrap;html=1;" vertex="1" parent="1">
          <mxGeometry x="330" y="668" width="150" height="40" as="geometry" />
        </mxCell>
        <mxCell id="ceODfWnPgdktClt1tQam-51" value="" style="endArrow=classic;html=1;rounded=0;" edge="1" parent="1">
          <mxGeometry width="50" height="50" relative="1" as="geometry">
            <mxPoint x="320" y="913" as="sourcePoint" />
            <mxPoint x="680" y="913" as="targetPoint" />
          </mxGeometry>
        </mxCell>
        <mxCell id="ceODfWnPgdktClt1tQam-52" value="add_availaility(expert_id,&lt;div&gt;timeslots)&lt;/div&gt;" style="text;html=1;align=center;verticalAlign=middle;whiteSpace=wrap;rounded=0;" vertex="1" parent="1">
          <mxGeometry x="337.5" y="867" width="152.5" height="50" as="geometry" />
        </mxCell>
        <mxCell id="ceODfWnPgdktClt1tQam-54" value="" style="endArrow=classic;html=1;rounded=0;" edge="1" parent="1">
          <mxGeometry width="50" height="50" relative="1" as="geometry">
            <mxPoint x="680" y="1320" as="sourcePoint" />
            <mxPoint x="1100" y="1320" as="targetPoint" />
          </mxGeometry>
        </mxCell>
        <mxCell id="ceODfWnPgdktClt1tQam-55" value="store_availability" style="text;html=1;align=center;verticalAlign=middle;whiteSpace=wrap;rounded=0;" vertex="1" parent="1">
          <mxGeometry x="711" y="920" width="185" height="30" as="geometry" />
        </mxCell>
        <mxCell id="ceODfWnPgdktClt1tQam-57" value="" style="html=1;verticalAlign=bottom;labelBackgroundColor=none;endArrow=block;endFill=1;dashed=1;rounded=0;" edge="1" parent="1">
          <mxGeometry width="160" relative="1" as="geometry">
            <mxPoint x="680" y="977" as="sourcePoint" />
            <mxPoint x="320" y="977" as="targetPoint" />
          </mxGeometry>
        </mxCell>
        <mxCell id="ceODfWnPgdktClt1tQam-60" value="Display(&quot;successfull time slot has been added&quot;)" style="text;html=1;align=center;verticalAlign=middle;whiteSpace=wrap;rounded=0;" vertex="1" parent="1">
          <mxGeometry x="325.75" y="945" width="176" height="27" as="geometry" />
        </mxCell>
        <mxCell id="ceODfWnPgdktClt1tQam-61" value="Parallel" style="shape=umlFrame;whiteSpace=wrap;html=1;pointerEvents=0;" vertex="1" parent="1">
          <mxGeometry x="255.5" y="820" width="904.5" height="790" as="geometry" />
        </mxCell>
        <mxCell id="ceODfWnPgdktClt1tQam-64" value="" style="endArrow=classic;html=1;rounded=0;" edge="1" parent="1">
          <mxGeometry width="50" height="50" relative="1" as="geometry">
            <mxPoint x="325" y="1063" as="sourcePoint" />
            <mxPoint x="680" y="1063" as="targetPoint" />
          </mxGeometry>
        </mxCell>
        <mxCell id="ceODfWnPgdktClt1tQam-65" value="view_objects()" style="text;html=1;align=center;verticalAlign=middle;whiteSpace=wrap;rounded=0;" vertex="1" parent="1">
          <mxGeometry x="360" y="1030" width="130" height="30" as="geometry" />
        </mxCell>
        <mxCell id="ceODfWnPgdktClt1tQam-66" value="" style="endArrow=classic;html=1;rounded=0;" edge="1" parent="1">
          <mxGeometry width="50" height="50" relative="1" as="geometry">
            <mxPoint x="680" y="1100" as="sourcePoint" />
            <mxPoint x="1100" y="1100" as="targetPoint" />
          </mxGeometry>
        </mxCell>
        <mxCell id="ceODfWnPgdktClt1tQam-67" value="get objects" style="text;html=1;align=center;verticalAlign=middle;whiteSpace=wrap;rounded=0;" vertex="1" parent="1">
          <mxGeometry x="710" y="1070" width="185" height="30" as="geometry" />
        </mxCell>
        <mxCell id="ceODfWnPgdktClt1tQam-68" value="" style="html=1;verticalAlign=bottom;labelBackgroundColor=none;endArrow=block;endFill=1;dashed=1;rounded=0;" edge="1" parent="1">
          <mxGeometry width="160" relative="1" as="geometry">
            <mxPoint x="1100" y="1144" as="sourcePoint" />
            <mxPoint x="680" y="1144" as="targetPoint" />
          </mxGeometry>
        </mxCell>
        <mxCell id="ceODfWnPgdktClt1tQam-70" value="" style="html=1;verticalAlign=bottom;labelBackgroundColor=none;endArrow=block;endFill=1;dashed=1;rounded=0;" edge="1" parent="1">
          <mxGeometry width="160" relative="1" as="geometry">
            <mxPoint x="680" y="1180" as="sourcePoint" />
            <mxPoint x="320" y="1180" as="targetPoint" />
          </mxGeometry>
        </mxCell>
        <mxCell id="ceODfWnPgdktClt1tQam-72" value="Display objects" style="text;html=1;align=center;verticalAlign=middle;whiteSpace=wrap;rounded=0;" vertex="1" parent="1">
          <mxGeometry x="353.75" y="1150" width="120" height="30" as="geometry" />
        </mxCell>
        <mxCell id="ceODfWnPgdktClt1tQam-73" value="return objects" style="text;html=1;align=center;verticalAlign=middle;whiteSpace=wrap;rounded=0;" vertex="1" parent="1">
          <mxGeometry x="749" y="1121" width="120" height="29" as="geometry" />
        </mxCell>
        <mxCell id="ceODfWnPgdktClt1tQam-74" value="" style="endArrow=none;html=1;rounded=0;entryX=0.996;entryY=0.34;entryDx=0;entryDy=0;entryPerimeter=0;exitX=0.001;exitY=0.487;exitDx=0;exitDy=0;exitPerimeter=0;" edge="1" parent="1">
          <mxGeometry width="50" height="50" relative="1" as="geometry">
            <mxPoint x="255.5" y="1200" as="sourcePoint" />
            <mxPoint x="1155.25" y="1200" as="targetPoint" />
          </mxGeometry>
        </mxCell>
        <mxCell id="ceODfWnPgdktClt1tQam-75" value="" style="endArrow=classic;html=1;rounded=0;" edge="1" parent="1">
          <mxGeometry width="50" height="50" relative="1" as="geometry">
            <mxPoint x="325.75" y="1270" as="sourcePoint" />
            <mxPoint x="680.75" y="1270" as="targetPoint" />
          </mxGeometry>
        </mxCell>
        <mxCell id="ceODfWnPgdktClt1tQam-76" value="" style="endArrow=classic;html=1;rounded=0;" edge="1" parent="1">
          <mxGeometry width="50" height="50" relative="1" as="geometry">
            <mxPoint x="690" y="955" as="sourcePoint" />
            <mxPoint x="1110" y="955" as="targetPoint" />
          </mxGeometry>
        </mxCell>
        <mxCell id="ceODfWnPgdktClt1tQam-77" value="" style="html=1;verticalAlign=bottom;labelBackgroundColor=none;endArrow=block;endFill=1;dashed=1;rounded=0;" edge="1" parent="1">
          <mxGeometry width="160" relative="1" as="geometry">
            <mxPoint x="680" y="1360" as="sourcePoint" />
            <mxPoint x="320" y="1360" as="targetPoint" />
          </mxGeometry>
        </mxCell>
        <mxCell id="ceODfWnPgdktClt1tQam-78" value="update_availability()" style="text;html=1;align=center;verticalAlign=middle;whiteSpace=wrap;rounded=0;" vertex="1" parent="1">
          <mxGeometry x="345" y="1240" width="135" height="30" as="geometry" />
        </mxCell>
        <mxCell id="ceODfWnPgdktClt1tQam-79" value="update(time_slots)" style="text;html=1;align=center;verticalAlign=middle;whiteSpace=wrap;rounded=0;" vertex="1" parent="1">
          <mxGeometry x="692.5" y="1290" width="185" height="30" as="geometry" />
        </mxCell>
        <mxCell id="ceODfWnPgdktClt1tQam-80" value="Display(&quot;time_slots has been update&quot;)" style="text;html=1;align=center;verticalAlign=middle;whiteSpace=wrap;rounded=0;" vertex="1" parent="1">
          <mxGeometry x="321.25" y="1330" width="185" height="30" as="geometry" />
        </mxCell>
        <mxCell id="ceODfWnPgdktClt1tQam-81" value="" style="endArrow=none;html=1;rounded=0;entryX=0.996;entryY=0.34;entryDx=0;entryDy=0;entryPerimeter=0;exitX=0.001;exitY=0.487;exitDx=0;exitDy=0;exitPerimeter=0;" edge="1" parent="1">
          <mxGeometry width="50" height="50" relative="1" as="geometry">
            <mxPoint x="260.25" y="1400" as="sourcePoint" />
            <mxPoint x="1160" y="1400" as="targetPoint" />
          </mxGeometry>
        </mxCell>
        <mxCell id="ceODfWnPgdktClt1tQam-82" value="" style="endArrow=none;html=1;rounded=0;entryX=0.996;entryY=0.34;entryDx=0;entryDy=0;entryPerimeter=0;exitX=0.001;exitY=0.487;exitDx=0;exitDy=0;exitPerimeter=0;" edge="1" parent="1">
          <mxGeometry width="50" height="50" relative="1" as="geometry">
            <mxPoint x="257.88" y="1010" as="sourcePoint" />
            <mxPoint x="1157.63" y="1010" as="targetPoint" />
          </mxGeometry>
        </mxCell>
        <mxCell id="ceODfWnPgdktClt1tQam-83" value="" style="endArrow=classic;html=1;rounded=0;" edge="1" parent="1">
          <mxGeometry width="50" height="50" relative="1" as="geometry">
            <mxPoint x="321.25" y="1460" as="sourcePoint" />
            <mxPoint x="676.25" y="1460" as="targetPoint" />
          </mxGeometry>
        </mxCell>
        <mxCell id="ceODfWnPgdktClt1tQam-84" value="" style="endArrow=classic;html=1;rounded=0;" edge="1" parent="1">
          <mxGeometry width="50" height="50" relative="1" as="geometry">
            <mxPoint x="680" y="1490" as="sourcePoint" />
            <mxPoint x="1100" y="1490" as="targetPoint" />
          </mxGeometry>
        </mxCell>
        <mxCell id="ceODfWnPgdktClt1tQam-85" value="" style="html=1;verticalAlign=bottom;labelBackgroundColor=none;endArrow=block;endFill=1;dashed=1;rounded=0;" edge="1" parent="1">
          <mxGeometry width="160" relative="1" as="geometry">
            <mxPoint x="1100" y="1540" as="sourcePoint" />
            <mxPoint x="680" y="1540" as="targetPoint" />
          </mxGeometry>
        </mxCell>
        <mxCell id="ceODfWnPgdktClt1tQam-86" value="" style="html=1;verticalAlign=bottom;labelBackgroundColor=none;endArrow=block;endFill=1;dashed=1;rounded=0;" edge="1" parent="1">
          <mxGeometry width="160" relative="1" as="geometry">
            <mxPoint x="680" y="1580" as="sourcePoint" />
            <mxPoint x="320" y="1580" as="targetPoint" />
          </mxGeometry>
        </mxCell>
        <mxCell id="ceODfWnPgdktClt1tQam-87" value="view_auction()" style="text;html=1;align=center;verticalAlign=middle;whiteSpace=wrap;rounded=0;" vertex="1" parent="1">
          <mxGeometry x="345" y="1430" width="95" height="30" as="geometry" />
        </mxCell>
        <mxCell id="ceODfWnPgdktClt1tQam-89" value="get auction data" style="text;html=1;align=center;verticalAlign=middle;whiteSpace=wrap;rounded=0;" vertex="1" parent="1">
          <mxGeometry x="749" y="1469" width="115" height="20" as="geometry" />
        </mxCell>
        <mxCell id="ceODfWnPgdktClt1tQam-92" value="&lt;span style=&quot;color: rgb(0, 0, 0); font-family: Helvetica; font-size: 12px; font-style: normal; font-variant-ligatures: normal; font-variant-caps: normal; font-weight: 400; letter-spacing: normal; orphans: 2; text-align: center; text-indent: 0px; text-transform: none; widows: 2; word-spacing: 0px; -webkit-text-stroke-width: 0px; white-space: normal; background-color: rgb(236, 236, 236); text-decoration-thickness: initial; text-decoration-style: initial; text-decoration-color: initial; float: none; display: inline !important;&quot;&gt;return data&lt;/span&gt;" style="text;whiteSpace=wrap;html=1;" vertex="1" parent="1">
          <mxGeometry x="763.5" y="1517" width="70.5" height="30" as="geometry" />
        </mxCell>
        <mxCell id="ceODfWnPgdktClt1tQam-94" value="&lt;div style=&quot;text-align: center;&quot;&gt;&lt;span style=&quot;background-color: transparent; color: light-dark(rgb(0, 0, 0), rgb(255, 255, 255));&quot;&gt;display(&quot;Auction and their schedule&quot;)&lt;br&gt;&lt;/span&gt;&lt;/div&gt;" style="text;whiteSpace=wrap;html=1;" vertex="1" parent="1">
          <mxGeometry x="347" y="1540" width="120" height="40" as="geometry" />
        </mxCell>
      </root>
    </mxGraphModel>
  </diagram>
</mxfile>
